REM MD5 50cf711e29552306903bfecb1d019e3c
FILE "Angel Blade - Neo Tokyo Guardians (Japan) (Major Wave).bin" BINARY
  TRACK 01 MODE2/2352
    INDEX 01 00:00:00
  TRACK 02 AUDIO
    INDEX 00 25:02:59
    INDEX 01 25:04:59
  TRACK 03 AUDIO
    INDEX 00 27:57:69
    INDEX 01 27:59:69
REM LEADOUT 30:50:01
